# xmcd
#
# Track frame offsets: 
#        150
#        18197
#        32787
#        47452
#        62322
#        78332
#        99429
#        116002
#        132710
#        148042
#
# Disc length: 2234 seconds
#
# Revision: 0
# Processed by: cddbd v1.4PL0 Copyright (c) Steve Scherf et al.
# Submitted via: ExactAudioCopy v0.95a3
#
DISCID=7d08b80a
DTITLE=Tony Rendon - Chat About That
DYEAR=2001
DGENRE=Country
TTITLE0=You Move Me
TTITLE1=The Chat Song
TTITLE2=Much To Late
TTITLE3=Please Let Me Love You
TTITLE4=That's What I Love About You
TTITLE5=Baby Don't Go
TTITLE6=This Pain (In My Heart)
TTITLE7=Teardrops
TTITLE8=I Pledge This Vow
TTITLE9=You Blow My Heart Away
EXTD=
EXTT0=
EXTT1=
EXTT2=
EXTT3=
EXTT4=
EXTT5=
EXTT6=
EXTT7=
EXTT8=
EXTT9=
PLAYORDER=
